<mxfile host="65bd71144e">
    <diagram id="LBzNbN2SJorGIumuhStU" name="第1頁">
        <mxGraphModel dx="1130" dy="787" grid="1" gridSize="10" guides="1" tooltips="1" connect="1" arrows="1" fold="1" page="1" pageScale="1" pageWidth="827" pageHeight="1169" math="0" shadow="0">
            <root>
                <mxCell id="0"/>
                <mxCell id="1" parent="0"/>
                <mxCell id="7" style="edgeStyle=none;html=1;fontSize=26;fontColor=#000000;strokeWidth=5;exitX=0.75;exitY=1;exitDx=0;exitDy=0;strokeColor=#001DBC;entryX=0.25;entryY=0;entryDx=0;entryDy=0;fillColor=#0050ef;" edge="1" parent="1" source="2" target="3">
                    <mxGeometry relative="1" as="geometry">
                        <mxPoint x="343" y="230" as="targetPoint"/>
                    </mxGeometry>
                </mxCell>
                <mxCell id="2" value="&lt;font size=&quot;1&quot; color=&quot;#000000&quot; style=&quot;&quot;&gt;&lt;b style=&quot;font-size: 26px;&quot;&gt;需求&lt;/b&gt;&lt;/font&gt;" style="rounded=0;whiteSpace=wrap;html=1;fillColor=#1ba1e2;fontColor=#ffffff;strokeColor=#006EAF;gradientColor=default;gradientDirection=east;align=center;" vertex="1" parent="1">
                    <mxGeometry x="243" y="130" width="140" height="60" as="geometry"/>
                </mxCell>
                <mxCell id="8" style="edgeStyle=none;html=1;exitX=0.75;exitY=1;exitDx=0;exitDy=0;strokeWidth=5;fontSize=26;fontColor=#000000;entryX=0.25;entryY=0;entryDx=0;entryDy=0;strokeColor=#001DBC;fillColor=#0050ef;" edge="1" parent="1" source="3" target="4">
                    <mxGeometry relative="1" as="geometry"/>
                </mxCell>
                <mxCell id="3" value="&lt;font size=&quot;1&quot; color=&quot;#000000&quot; style=&quot;&quot;&gt;&lt;b style=&quot;font-size: 26px;&quot;&gt;分析&lt;/b&gt;&lt;/font&gt;" style="rounded=0;whiteSpace=wrap;html=1;fillColor=#1ba1e2;fontColor=#ffffff;strokeColor=#006EAF;gradientColor=default;gradientDirection=east;align=center;" vertex="1" parent="1">
                    <mxGeometry x="313" y="230" width="140" height="60" as="geometry"/>
                </mxCell>
                <mxCell id="9" style="edgeStyle=none;html=1;strokeWidth=5;fontSize=26;fontColor=#000000;exitX=0.808;exitY=1;exitDx=0;exitDy=0;exitPerimeter=0;entryX=0.318;entryY=-0.014;entryDx=0;entryDy=0;entryPerimeter=0;strokeColor=#001DBC;fillColor=#0050ef;" edge="1" parent="1" source="4" target="5">
                    <mxGeometry relative="1" as="geometry">
                        <mxPoint x="480" y="440" as="targetPoint"/>
                    </mxGeometry>
                </mxCell>
                <mxCell id="4" value="&lt;font size=&quot;1&quot; color=&quot;#000000&quot; style=&quot;&quot;&gt;&lt;b style=&quot;font-size: 26px;&quot;&gt;設計&lt;br&gt;&lt;/b&gt;&lt;/font&gt;" style="rounded=0;whiteSpace=wrap;html=1;fillColor=#1ba1e2;fontColor=#ffffff;strokeColor=#006EAF;gradientColor=default;gradientDirection=east;align=center;" vertex="1" parent="1">
                    <mxGeometry x="383" y="330" width="140" height="60" as="geometry"/>
                </mxCell>
                <mxCell id="10" style="edgeStyle=none;html=1;strokeWidth=5;fontSize=26;fontColor=#000000;exitX=0.75;exitY=1;exitDx=0;exitDy=0;strokeColor=#001DBC;entryX=0.25;entryY=0;entryDx=0;entryDy=0;fillColor=#0050ef;" edge="1" parent="1" source="5" target="6">
                    <mxGeometry relative="1" as="geometry">
                        <mxPoint x="543" y="550" as="targetPoint"/>
                    </mxGeometry>
                </mxCell>
                <mxCell id="5" value="&lt;font size=&quot;1&quot; color=&quot;#000000&quot; style=&quot;&quot;&gt;&lt;b style=&quot;font-size: 26px;&quot;&gt;製作&lt;/b&gt;&lt;/font&gt;" style="rounded=0;whiteSpace=wrap;html=1;fillColor=#1ba1e2;fontColor=#ffffff;strokeColor=#006EAF;gradientColor=default;gradientDirection=east;align=center;" vertex="1" parent="1">
                    <mxGeometry x="453" y="430" width="140" height="60" as="geometry"/>
                </mxCell>
                <mxCell id="11" style="edgeStyle=none;html=1;strokeWidth=5;fontSize=26;fontColor=#000000;entryX=0.212;entryY=0.986;entryDx=0;entryDy=0;dashed=1;dashPattern=1 1;strokeColor=#001DBC;entryPerimeter=0;fillColor=#0050ef;" edge="1" parent="1" source="6" target="5">
                    <mxGeometry relative="1" as="geometry">
                        <mxPoint x="473" y="500" as="targetPoint"/>
                        <Array as="points">
                            <mxPoint x="483" y="570"/>
                        </Array>
                    </mxGeometry>
                </mxCell>
                <mxCell id="18" style="edgeStyle=none;html=1;entryX=1;entryY=0.5;entryDx=0;entryDy=0;dashed=1;dashPattern=1 1;strokeWidth=5;fontSize=26;fontColor=#000000;strokeColor=#CCE5FF;exitX=0.611;exitY=0.01;exitDx=0;exitDy=0;exitPerimeter=0;" edge="1" parent="1" source="6" target="4">
                    <mxGeometry relative="1" as="geometry">
                        <mxPoint x="613" y="530" as="sourcePoint"/>
                        <Array as="points">
                            <mxPoint x="613" y="360"/>
                        </Array>
                    </mxGeometry>
                </mxCell>
                <mxCell id="19" style="edgeStyle=none;html=1;entryX=1;entryY=0.5;entryDx=0;entryDy=0;dashed=1;dashPattern=1 1;strokeColor=#CCE5FF;strokeWidth=5;fontSize=26;fontColor=#000000;exitX=0.779;exitY=-0.01;exitDx=0;exitDy=0;exitPerimeter=0;" edge="1" parent="1" source="6" target="3">
                    <mxGeometry relative="1" as="geometry">
                        <mxPoint x="633" y="540" as="sourcePoint"/>
                        <Array as="points">
                            <mxPoint x="640" y="260"/>
                        </Array>
                    </mxGeometry>
                </mxCell>
                <mxCell id="20" style="edgeStyle=none;html=1;entryX=1;entryY=0.5;entryDx=0;entryDy=0;dashed=1;dashPattern=1 1;strokeColor=#CCE5FF;strokeWidth=5;fontSize=26;fontColor=#000000;exitX=0.954;exitY=-0.029;exitDx=0;exitDy=0;exitPerimeter=0;" edge="1" parent="1" source="6" target="2">
                    <mxGeometry relative="1" as="geometry">
                        <Array as="points">
                            <mxPoint x="663" y="160"/>
                        </Array>
                    </mxGeometry>
                </mxCell>
                <mxCell id="6" value="&lt;font size=&quot;1&quot; color=&quot;#000000&quot; style=&quot;&quot;&gt;&lt;b style=&quot;font-size: 26px;&quot;&gt;維護&lt;/b&gt;&lt;/font&gt;" style="rounded=0;whiteSpace=wrap;html=1;fillColor=#1ba1e2;fontColor=#ffffff;strokeColor=#006EAF;gradientColor=default;gradientDirection=east;align=center;" vertex="1" parent="1">
                    <mxGeometry x="523" y="540" width="150" height="60" as="geometry"/>
                </mxCell>
                <mxCell id="12" style="edgeStyle=none;html=1;strokeWidth=5;fontSize=26;fontColor=#000000;dashed=1;dashPattern=1 1;exitX=0;exitY=0.5;exitDx=0;exitDy=0;strokeColor=#001DBC;entryX=0.141;entryY=1.014;entryDx=0;entryDy=0;entryPerimeter=0;fillColor=#0050ef;" edge="1" parent="1" source="5" target="4">
                    <mxGeometry relative="1" as="geometry">
                        <mxPoint x="433" y="470" as="sourcePoint"/>
                        <mxPoint x="403" y="390" as="targetPoint"/>
                        <Array as="points">
                            <mxPoint x="404" y="460"/>
                        </Array>
                    </mxGeometry>
                </mxCell>
                <mxCell id="13" style="edgeStyle=none;html=1;strokeWidth=5;fontSize=26;fontColor=#000000;dashed=1;dashPattern=1 1;exitX=0;exitY=0.5;exitDx=0;exitDy=0;entryX=0.22;entryY=0.995;entryDx=0;entryDy=0;strokeColor=#001DBC;entryPerimeter=0;fillColor=#0050ef;" edge="1" parent="1" source="4" target="3">
                    <mxGeometry relative="1" as="geometry">
                        <mxPoint x="373" y="360" as="sourcePoint"/>
                        <mxPoint x="343" y="290" as="targetPoint"/>
                        <Array as="points">
                            <mxPoint x="343" y="360"/>
                        </Array>
                    </mxGeometry>
                </mxCell>
                <mxCell id="17" style="edgeStyle=none;html=1;strokeWidth=5;fontSize=26;fontColor=#000000;dashed=1;dashPattern=1 1;entryX=0.214;entryY=1.005;entryDx=0;entryDy=0;strokeColor=#001DBC;entryPerimeter=0;fillColor=#0050ef;" edge="1" parent="1" source="3" target="2">
                    <mxGeometry relative="1" as="geometry">
                        <mxPoint x="313" y="260" as="sourcePoint"/>
                        <mxPoint x="273" y="190.0000000000001" as="targetPoint"/>
                        <Array as="points">
                            <mxPoint x="273" y="260"/>
                        </Array>
                    </mxGeometry>
                </mxCell>
                <mxCell id="21" value="" style="rounded=0;whiteSpace=wrap;html=1;fontSize=26;fontColor=#000000;gradientColor=none;gradientDirection=east;fillColor=#808080;" vertex="1" parent="1">
                    <mxGeometry x="163" y="540" width="120" height="60" as="geometry"/>
                </mxCell>
                <mxCell id="23" value="" style="endArrow=classic;html=1;dashed=1;dashPattern=1 1;strokeColor=#CCE5FF;strokeWidth=3;fontSize=26;fontColor=#000000;" edge="1" parent="1">
                    <mxGeometry width="50" height="50" relative="1" as="geometry">
                        <mxPoint x="183" y="585" as="sourcePoint"/>
                        <mxPoint x="233" y="585" as="targetPoint"/>
                    </mxGeometry>
                </mxCell>
                <mxCell id="24" value="" style="endArrow=classic;html=1;strokeColor=#001DBC;strokeWidth=3;fontSize=26;fontColor=#000000;entryX=0.583;entryY=0.667;entryDx=0;entryDy=0;entryPerimeter=0;fillColor=#0050ef;" edge="1" parent="1">
                    <mxGeometry width="50" height="50" relative="1" as="geometry">
                        <mxPoint x="183" y="560" as="sourcePoint"/>
                        <mxPoint x="232.96000000000004" y="560.02" as="targetPoint"/>
                    </mxGeometry>
                </mxCell>
                <mxCell id="28" value="&lt;font size=&quot;1&quot; style=&quot;&quot;&gt;&lt;b style=&quot;font-size: 16px;&quot;&gt;發展&lt;/b&gt;&lt;/font&gt;" style="text;html=1;align=center;verticalAlign=middle;resizable=0;points=[];autosize=1;strokeColor=none;fillColor=none;fontSize=26;fontColor=#000000;" vertex="1" parent="1">
                    <mxGeometry x="223" y="537" width="60" height="40" as="geometry"/>
                </mxCell>
                <mxCell id="29" value="&lt;font size=&quot;1&quot; style=&quot;&quot;&gt;&lt;b style=&quot;font-size: 16px;&quot;&gt;維護&lt;/b&gt;&lt;/font&gt;" style="text;html=1;align=center;verticalAlign=middle;resizable=0;points=[];autosize=1;strokeColor=none;fillColor=none;fontSize=26;fontColor=#000000;" vertex="1" parent="1">
                    <mxGeometry x="223" y="562" width="60" height="40" as="geometry"/>
                </mxCell>
                <mxCell id="30" value="&lt;font color=&quot;#ffffff&quot;&gt;發&lt;br&gt;展&lt;br&gt;工&lt;br&gt;作&lt;br&gt;的&lt;br&gt;次&lt;br&gt;序&lt;br&gt;&lt;/font&gt;" style="text;html=1;align=center;verticalAlign=middle;resizable=0;points=[];autosize=1;strokeColor=none;fillColor=none;fontSize=16;fontColor=#000000;" vertex="1" parent="1">
                    <mxGeometry x="153" y="220" width="40" height="150" as="geometry"/>
                </mxCell>
                <mxCell id="31" value="&lt;font style=&quot;font-size: 15px;&quot;&gt;由&lt;br style=&quot;font-size: 15px;&quot;&gt;上&lt;br style=&quot;font-size: 15px;&quot;&gt;至&lt;br style=&quot;font-size: 15px;&quot;&gt;下&lt;br style=&quot;font-size: 15px;&quot;&gt;&lt;/font&gt;" style="text;html=1;align=center;verticalAlign=middle;resizable=0;points=[];autosize=1;strokeColor=none;fillColor=none;fontSize=15;fontColor=#B3B3B3;horizontal=1;flipV=0;" vertex="1" parent="1">
                    <mxGeometry x="130" y="218" width="40" height="90" as="geometry"/>
                </mxCell>
            </root>
        </mxGraphModel>
    </diagram>
</mxfile>